HIERARCHY
ROOT hip
{
  OFFSET 0 0 0
  CHANNELS 6 Xposition Yposition Zposition Zrotation Yrotation Xrotation
  JOINT abdomen
  {
    OFFSET 0 20.6881 -0.73152
    CHANNELS 3 Zrotation Xrotation Yrotation
    JOINT chest
    {
      OFFSET 0 11.7043 -0.48768
      CHANNELS 3 Zrotation Xrotation Yrotation
      JOINT neck
      {
        OFFSET 0 22.1894 -2.19456
        CHANNELS 3 Zrotation Xrotation Yrotation
        JOINT head
        {
          OFFSET -0.24384 7.07133 1.2192
          CHANNELS 3 Zrotation Xrotation Yrotation
          JOINT leftEye
          {
            OFFSET 4.14528 8.04674 8.04672
            CHANNELS 3 Zrotation Xrotation Yrotation
            End Site
            {
              OFFSET 1 0 0
            }
          }
          JOINT rightEye
          {
            OFFSET -3.6576 8.04674 8.04672
            CHANNELS 3 Zrotation Xrotation Yrotation
            End Site
            {
              OFFSET 1 0 0
            }
          }
        }
      }
      JOINT rCollar
      {
        OFFSET -2.68224 19.2634 -4.8768
        CHANNELS 3 Zrotation Xrotation Yrotation
        JOINT rShldr
        {
          OFFSET -8.77824 -1.95073 1.46304
          CHANNELS 3 Zrotation Xrotation Yrotation
          JOINT rForeArm
          {
            OFFSET -28.1742 -1.7115 0.48768
            CHANNELS 3 Zrotation Xrotation Yrotation
            JOINT rHand
            {
              OFFSET -22.5879 0.773209 7.07136
              CHANNELS 3 Zrotation Xrotation Yrotation
              JOINT rThumb1
              {
                OFFSET -1.2192 -0.487915 3.41376
                CHANNELS 3 Zrotation Xrotation Yrotation
                JOINT rThumb2
                {
                  OFFSET -3.37035 -0.52449 3.41376
                  CHANNELS 3 Zrotation Xrotation Yrotation
                  End Site
                  {
                    OFFSET -1.78271 -1.18214 1.43049
                  }
                }
              }
              JOINT rIndex1
              {
                OFFSET -7.75947 0.938293 5.60832
                CHANNELS 3 Zrotation Xrotation Yrotation
                JOINT rIndex2
                {
                  OFFSET -2.54057 -0.884171 1.56538
                  CHANNELS 3 Zrotation Xrotation Yrotation
                  End Site
                  {
                    OFFSET -1.62519 -0.234802 1.16502
                  }
                }
              }
              JOINT rMid1
              {
                OFFSET -8.24714 1.18213 3.41376
                CHANNELS 3 Zrotation Xrotation Yrotation
                JOINT rMid2
                {
                  OFFSET -3.10165 -0.590103 1.0647
                  CHANNELS 3 Zrotation Xrotation Yrotation
                  End Site
                  {
                    OFFSET -2.48547 -0.328903 0.83742
                  }
                }
              }
              JOINT rRing1
              {
                OFFSET -8.82822 0.546677 1.51678
                CHANNELS 3 Zrotation Xrotation Yrotation
                JOINT rRing2
                {
                  OFFSET -2.60934 -0.819778 -0.0198488
                  CHANNELS 3 Zrotation Xrotation Yrotation
                  End Site
                  {
                    OFFSET -2.33842 -0.294052 0.168128
                  }
                }
              }
              JOINT rPinky1
              {
                OFFSET -8.27202 -0.0477905 -0.4584
                CHANNELS 3 Zrotation Xrotation Yrotation
                JOINT rPinky2
                {
                  OFFSET -1.82734 -0.647385 -0.700984
                  CHANNELS 3 Zrotation Xrotation Yrotation
                  End Site
                  {
                    OFFSET -1.69225 -0.51767 -0.607171
                  }
                }
              }
            }
          }
        }
      }
      JOINT lCollar
      {
        OFFSET 2.68224 19.2634 -4.8768
        CHANNELS 3 Zrotation Xrotation Yrotation
        JOINT lShldr
        {
          OFFSET 8.77824 -1.95073 1.46304
          CHANNELS 3 Zrotation Xrotation Yrotation
          JOINT lForeArm
          {
            OFFSET 28.1742 -1.7115 0.48768
            CHANNELS 3 Zrotation Xrotation Yrotation
            JOINT lHand
            {
              OFFSET 22.5879 0.773209 7.07136
              CHANNELS 3 Zrotation Xrotation Yrotation
              JOINT lThumb1
              {
                OFFSET 1.2192 -0.487915 3.41376
                CHANNELS 3 Zrotation Xrotation Yrotation
                JOINT lThumb2
                {
                  OFFSET 3.37035 -0.52449 3.41376
                  CHANNELS 3 Zrotation Xrotation Yrotation
                  End Site
                  {
                    OFFSET 1.78271 -1.18214 1.43049
                  }
                }
              }
              JOINT lIndex1
              {
                OFFSET 7.75947 0.938293 5.60832
                CHANNELS 3 Zrotation Xrotation Yrotation
                JOINT lIndex2
                {
                  OFFSET 2.54057 -0.884171 1.56538
                  CHANNELS 3 Zrotation Xrotation Yrotation
                  End Site
                  {
                    OFFSET 1.62519 -0.234802 1.16502
                  }
                }
              }
              JOINT lMid1
              {
                OFFSET 8.24714 1.18213 3.41376
                CHANNELS 3 Zrotation Xrotation Yrotation
                JOINT lMid2
                {
                  OFFSET 3.10165 -0.590103 1.0647
                  CHANNELS 3 Zrotation Xrotation Yrotation
                  End Site
                  {
                    OFFSET 2.48547 -0.328903 0.83742
                  }
                }
              }
              JOINT lRing1
              {
                OFFSET 8.82822 0.546677 1.51678
                CHANNELS 3 Zrotation Xrotation Yrotation
                JOINT lRing2
                {
                  OFFSET 2.60934 -0.819778 -0.0198488
                  CHANNELS 3 Zrotation Xrotation Yrotation
                  End Site
                  {
                    OFFSET 2.33842 -0.294052 0.168128
                  }
                }
              }
              JOINT lPinky1
              {
                OFFSET 8.27202 -0.0477905 -0.4584
                CHANNELS 3 Zrotation Xrotation Yrotation
                JOINT lPinky2
                {
                  OFFSET 1.82734 -0.647385 -0.700984
                  CHANNELS 3 Zrotation Xrotation Yrotation
                  End Site
                  {
                    OFFSET 1.69225 -0.51767 -0.607171
                  }
                }
              }
            }
          }
        }
      }
    }
  }
  JOINT rButtock
  {
    OFFSET -8.77824 4.35084 1.2192
    CHANNELS 3 Zrotation Xrotation Yrotation
    JOINT rThigh
    {
      OFFSET 0 -1.70687 -2.19456
      CHANNELS 3 Zrotation Xrotation Yrotation
      JOINT rShin
      {
        OFFSET 0 -36.8199 0.73152
        CHANNELS 3 Zrotation Xrotation Yrotation
        JOINT rFoot
        {
          OFFSET 0.73152 -45.1104 -5.12064
          CHANNELS 3 Zrotation Xrotation Yrotation
          End Site
          {
            OFFSET -1.1221 -3.69964 12.103
          }
        }
      }
    }
  }
  JOINT lButtock
  {
    OFFSET 8.77824 4.35084 1.2192
    CHANNELS 3 Zrotation Xrotation Yrotation
    JOINT lThigh
    {
      OFFSET 0 -1.70687 -2.19456
      CHANNELS 3 Zrotation Xrotation Yrotation
      JOINT lShin
      {
        OFFSET 0 -36.8199 0.73152
        CHANNELS 3 Zrotation Xrotation Yrotation
        JOINT lFoot
        {
          OFFSET -0.73152 -45.1104 -5.12064
          CHANNELS 3 Zrotation Xrotation Yrotation
          End Site
          {
            OFFSET 1.1221 -3.69964 12.103
          }
        }
      }
    }
  }
}
MOTION
Frames:	6
Frame Time:	0.00833333
-158.326 85.1731 -9.45663 0.0 0.0 0.0 0.512932 -0.00341814 0.0146932 0.141686 -0.00540198 0.0245504 -6.72492e-15 -1.59028e-15 3.10601e-17 -1.99499e-14 -6.36111e-15 7.92033e-17 -0.0 0.0 0.0 -0.0 0.0 0.0 -3.33106e-15 3.49426e-18 2.48481e-16 -6.84299e-14 -6.83322e-17 7.95139e-16 -1.20707e-12 3.65764e-13 9.54166e-15 -1.38562e-11 -3.43599e-13 2.54444e-14 -3.26819e-11 5.07248e-14 1.01778e-13 -5.64302e-11 8.5875e-14 1.76521e-13 -3.26742e-11 5.56597e-14 9.22361e-14 7.73091 5.47488 0.417314 -3.26804e-11 5.12864e-14 1.08139e-13 2.90554 0.965183 0.102902 -3.26678e-11 5.19822e-14 1.06549e-13 10.2786 0.731801 0.0259123 -3.26812e-11 5.04913e-14 1.20861e-13 2.22167 -0.733487 -0.20892 -3.42784e-15 3.49426e-18 -2.48481e-16 -7.27491e-14 -6.21202e-17 -9.93923e-16 -1.21522e-12 -3.57415e-13 2.54444e-14 -1.38574e-11 3.84673e-13 3.81667e-14 -3.26968e-11 6.23016e-14 1.11319e-13 -5.64644e-11 1.11319e-13 1.95604e-13 -3.27033e-11 6.67917e-14 1.20861e-13 -7.73091 5.47488 -0.417314 -3.26975e-11 6.33129e-14 1.11319e-13 -2.90554 0.965183 -0.102902 -3.27034e-11 6.27166e-14 1.06549e-13 -10.2786 0.731801 -0.0259123 -3.26947e-11 6.20208e-14 9.54166e-14 -2.22167 -0.733487 0.20892 -2.03217e-16 0.0 -3.88251e-19 0.860002 -4.41146 -0.0729703 -0.0021312 2.43942 -0.0112529 -0.474437 1.97258 0.093837 2.03217e-16 0.0 3.88251e-19 -0.0776973 -2.42095 0.0232544 0.00766786 -1.16604 0.0660001 0.465786 3.58744 -0.125217
-158.246 83.9468 -8.74712 1.4584 -0.9802 -2.2446 -0.0274916 2.85808 1.5081 -0.571064 1.05706 0.465525 1.59101 2.15733 1.13482 1.10377 6.81062 1.81229 -0.0 0.0 0.0 -0.0 0.0 0.0 -2.68483e-14 5.46684e-15 4.40199e-15 21.9041 8.01831 -0.209209 -5.34202 -2.70237 8.02332 0.0565971 -5.28129 -0.730895 1.9281e-10 -3.72515e-12 -2.43741e-11 3.32485e-10 -5.08474e-12 -3.87381e-11 1.92816e-10 -3.72102e-12 -2.43838e-11 7.73091 5.47488 0.417314 1.9281e-10 -3.72466e-12 -2.43715e-11 2.90554 0.965183 0.102902 1.9282e-10 -3.72425e-12 -2.43714e-11 10.2786 0.731801 0.0259123 1.92809e-10 -3.7244e-12 -2.43601e-11 2.22167 -0.733487 -0.20892 -2.69309e-14 5.4712e-15 3.98423e-15 -20.9384 8.22357 0.781897 5.92649 -3.15034 -8.70577 -0.00418958 -1.43602 0.201591 1.79424e-10 2.57991e-10 7.4045e-11 3.09872e-10 4.46371e-10 1.28492e-10 1.79418e-10 2.57994e-10 7.40574e-11 -7.73091 5.47488 -0.417314 1.79424e-10 2.57991e-10 7.4045e-11 -2.90554 0.965183 -0.102902 1.79418e-10 2.57991e-10 7.40427e-11 -10.2786 0.731801 -0.0259123 1.79427e-10 2.5799e-10 7.40318e-11 -2.22167 -0.733487 0.20892 -2.03217e-16 0.0 -3.88251e-19 2.27921 -5.74069 4.00802 0.0652025 10.236 0.222589 -2.06082 -7.1968 -7.76925 2.03217e-16 0.0 3.88251e-19 -1.27298 -5.35808 -5.52906 -0.0265955 7.70789 -0.107745 1.17378 -1.98632 5.87627
-158.247 83.9501 -8.7411 1.4719 -1.0066 -2.2739 -0.765716 5.87692 3.10052 -1.34122 2.17907 0.932385 3.17939 4.43641 2.33983 1.79125 13.987 3.81488 -0.0 0.0 0.0 -0.0 0.0 0.0 -5.32166e-14 1.11286e-14 9.36152e-15 45.1274 16.4973 -0.445931 -10.1752 -5.38294 16.5625 -0.0325028 -10.8616 -1.52451 4.5619e-10 -1.11837e-11 -4.6227e-11 7.86707e-10 -1.63343e-11 -7.25248e-11 4.56195e-10 -1.11804e-11 -4.62369e-11 7.73091 5.47488 0.417314 4.56189e-10 -1.11833e-11 -4.62286e-11 2.90554 0.965183 0.102902 4.56196e-10 -1.11831e-11 -4.62265e-11 10.2786 0.731801 0.0259123 4.56187e-10 -1.11819e-11 -4.62182e-11 2.22167 -0.733487 -0.20892 -5.32858e-14 1.11379e-14 9.02607e-15 -43.3287 16.9112 1.66719 11.1632 -6.23882 -17.993 0.00237886 -2.95143 0.414755 4.22404e-10 5.49573e-10 1.57305e-10 7.29504e-10 9.50869e-10 2.72984e-10 4.22397e-10 5.49574e-10 1.57321e-10 -7.73091 5.47488 -0.417314 4.22404e-10 5.49571e-10 1.57305e-10 -2.90554 0.965183 -0.102902 4.22398e-10 5.49571e-10 1.57306e-10 -10.2786 0.731801 -0.0259123 4.22406e-10 5.49571e-10 1.57295e-10 -2.22167 -0.733487 0.20892 -2.03217e-16 0.0 -3.88251e-19 3.98689 -7.09887 8.35092 0.0638277 18.478 0.48771 -6.54006 -16.3543 -16.6485 2.03217e-16 0.0 3.88251e-19 -3.15723 -8.34645 -11.4674 -0.00209825 17.0883 -0.302727 3.19053 -7.71972 12.3237
-158.251 83.9529 -8.73568 1.4584 -1.0114 -2.2997 -1.55963 8.55751 4.53994 -2.04569 3.18121 1.34931 4.51542 6.46181 3.42381 1.94788 20.3473 5.75895 -0.0 0.0 0.0 -0.0 0.0 0.0 -7.38829e-14 1.63935e-14 1.2709e-14 65.902 24.0536 -0.680594 -13.8137 -7.47256 24.2622 -0.247889 -15.8334 -2.26953 6.43794e-10 -1.12769e-11 -7.33258e-11 1.11031e-09 -1.5426e-11 -1.16567e-10 6.43798e-10 -1.12744e-11 -7.33358e-11 7.73091 5.47488 0.417314 6.43791e-10 -1.12766e-11 -7.33308e-11 2.90554 0.965183 0.102902 6.43796e-10 -1.12767e-11 -7.33273e-11 10.2786 0.731801 0.0259123 6.43789e-10 -1.12742e-11 -7.33219e-11 2.22167 -0.733487 -0.20892 -7.39371e-14 1.64066e-14 1.24497e-14 -63.5457 24.6514 2.55452 14.9913 -8.57988 -26.3953 0.0178189 -4.30785 0.606295 6.03667e-10 7.7385e-10 2.21912e-10 1.04255e-09 1.33889e-09 3.85086e-10 6.0366e-10 7.73849e-10 2.2193e-10 -7.73091 5.47488 -0.417314 6.03668e-10 7.73846e-10 2.21912e-10 -2.90554 0.965183 -0.102902 6.03661e-10 7.73846e-10 2.21915e-10 -10.2786 0.731801 -0.0259123 6.03669e-10 7.73847e-10 2.21905e-10 -2.22167 -0.733487 0.20892 -2.03217e-16 0.0 -3.88251e-19 5.6848 -8.25192 12.2378 -0.00946973 25.8275 0.75505 -13.1007 -23.4997 -25.563 2.03217e-16 0.0 3.88251e-19 -5.36977 -10.8322 -16.8703 0.0795091 25.4549 -0.500915 6.09733 -12.5197 18.3186
-158.259 83.9547 -8.7294 1.4321 -1.0316 -2.3289 -2.17224 10.415 5.55394 -2.55131 3.8844 1.63968 5.40305 7.86273 4.18673 1.76349 24.7474 7.25139 -0.0 0.0 0.0 -0.0 0.0 0.0 -8.02938e-14 2.06664e-14 1.20265e-14 80.4138 29.3047 -0.859134 -16.0033 -8.6902 29.6794 -0.479431 -19.2935 -2.82002 6.41958e-10 7.04334e-12 -1.13539e-10 1.10738e-09 1.58773e-11 -1.86249e-10 6.4196e-10 7.04493e-12 -1.13549e-10 7.73091 5.47488 0.417314 6.41953e-10 7.04344e-12 -1.13546e-10 2.90554 0.965183 0.102902 6.41957e-10 7.04304e-12 -1.13543e-10 10.2786 0.731801 0.0259123 6.41952e-10 7.04652e-12 -1.13539e-10 2.22167 -0.733487 -0.20892 -8.03295e-14 2.06802e-14 1.18277e-14 -77.7902 30.0417 3.24795 17.2321 -9.88424 -32.3194 0.0341449 -5.26699 0.74234 6.30639e-10 8.29864e-10 2.39887e-10 1.08911e-09 1.43572e-09 4.16215e-10 6.30633e-10 8.29863e-10 2.39906e-10 -7.73091 5.47488 -0.417314 6.3064e-10 8.2986e-10 2.39887e-10 -2.90554 0.965183 -0.102902 6.30633e-10 8.29861e-10 2.39891e-10 -10.2786 0.731801 -0.0259123 6.30642e-10 8.29862e-10 2.39881e-10 -2.22167 -0.733487 0.20892 -2.03217e-16 0.0 -3.88251e-19 6.95938 -9.0169 14.931 -0.108862 30.9474 0.968402 -19.1362 -27.5925 -32.4892 2.03217e-16 0.0 3.88251e-19 -7.20472 -12.4248 -20.7276 0.176667 31.2881 -0.66238 8.7514 -15.5996 22.7069
-158.273 83.9549 -8.72656 1.3443 -1.0078 -2.3412 -2.37688 11.1364 5.94241 -2.7676 4.17067 1.75216 5.74761 8.39072 4.48679 1.59512 26.4702 7.87762 -0.0 0.0 0.0 -0.0 0.0 0.0 -6.37696e-14 2.5079e-14 2.66069e-15 86.0816 31.3229 -0.916408 -16.7858 -9.1001 31.8025 -0.589397 -20.645 -3.04412 3.05385e-10 5.96859e-11 -1.98794e-10 5.27654e-10 1.03701e-10 -3.39088e-10 3.05387e-10 5.96861e-11 -1.98802e-10 7.73091 5.47488 0.417314 3.05381e-10 5.96854e-11 -1.98798e-10 2.90554 0.965183 0.102902 3.05384e-10 5.96847e-11 -1.98799e-10 10.2786 0.731801 0.0259123 3.05379e-10 5.96888e-11 -1.98797e-10 2.22167 -0.733487 -0.20892 -6.37736e-14 2.50885e-14 2.50888e-15 -83.3801 32.1585 3.50381 18.0177 -10.3023 -34.6375 0.0421984 -5.6706 0.799762 4.00366e-10 6.17784e-10 1.8166e-10 6.91412e-10 1.06857e-09 3.15023e-10 4.00362e-10 6.17784e-10 1.81677e-10 -7.73091 5.47488 -0.417314 4.00369e-10 6.17782e-10 1.81659e-10 -2.90554 0.965183 -0.102902 4.0036e-10 6.17783e-10 1.81664e-10 -10.2786 0.731801 -0.0259123 4.0037e-10 6.17784e-10 1.81653e-10 -2.22167 -0.733487 0.20892 -2.03217e-16 0.0 -3.88251e-19 7.46491 -9.31446 15.906 -0.161539 32.9448 1.05888 -21.7747 -28.92 -35.3265 2.03217e-16 0.0 3.88251e-19 -7.9971 -13.0082 -22.3156 0.225088 33.5786 -0.733569 9.95135 -16.735 24.5159
